<mxfile host="app.diagrams.net" modified="2020-10-12T16:25:20.946Z" agent="5.0 (X11; Linux x86_64) AppleWebKit/537.36 (KHTML, like Gecko) Chrome/85.0.4183.121 Safari/537.36" etag="6dDPdhTfTiDn5r0owtl-" version="13.7.9" type="github">
  <diagram id="65IRENYKk3DIIjxeDhYz" name="Page-1">
    <mxGraphModel dx="4063" dy="1957" grid="1" gridSize="10" guides="1" tooltips="1" connect="1" arrows="1" fold="1" page="1" pageScale="1" pageWidth="827" pageHeight="1169" math="0" shadow="0">
      <root>
        <mxCell id="0" />
        <mxCell id="1" parent="0" />
      </root>
    </mxGraphModel>
  </diagram>
</mxfile>
